<svg width="657" height="657" viewBox="0 0 657 657" fill="none" xmlns="http://www.w3.org/2000/svg">
<path d="M240.326 51.0496C240.326 41.8402 247.858 34.3007 257.075 34.3007H400.283C409.5 34.3007 417.04 41.8402 417.04 51.0496V156.575H450.537V51.0496C450.537 23.4142 427.926 0.802734 400.283 0.802734H257.075C229.44 0.802734 206.821 23.4142 206.821 51.0496V240.327H240.326V51.0496Z" fill="#FF66C4"/>
<path d="M417.04 606.477C417.04 615.694 409.5 623.226 400.283 623.226H257.075C247.858 623.226 240.326 615.694 240.326 606.477V500.952H206.821V606.477C206.821 634.12 229.44 656.731 257.075 656.731H400.283C427.926 656.731 450.537 634.12 450.537 606.477V417.375H417.04V606.477Z" fill="#FF66C4"/>
<path d="M366.786 417.039H51.0491C41.8397 417.039 34.3002 409.499 34.3002 400.283V257.074C34.3002 247.858 41.8397 240.326 51.0491 240.326H156.574V206.82H51.0491C23.4137 206.82 0.802246 229.439 0.802246 257.074V400.283C0.802246 427.926 23.4137 450.537 51.0491 450.537H366.786V417.039Z" fill="black"/>
<path d="M606.477 206.82H290.573V240.326H606.309C615.526 240.326 623.058 247.858 623.058 257.074V400.283C623.058 409.499 615.526 417.039 606.309 417.039H500.784V450.537H606.309C633.952 450.537 656.563 427.926 656.563 400.283V257.074C656.731 229.439 634.12 206.82 606.477 206.82Z" fill="black"/>
</svg>
