<svg width="386" height="55" viewBox="0 0 386 55" fill="none" xmlns="http://www.w3.org/2000/svg">
<path d="M48.04 3.84V54H41.64V14.48L27.32 44H21.48L7.16 14.4V54H0.76V3.84H9.32L24.52 35.76L39.8 3.84H48.04ZM88.7881 46.32V51.84C87.4015 52.5867 85.3481 53.2533 82.6281 53.84C79.9615 54.3733 77.2415 54.64 74.4681 54.64C68.2815 54.64 63.8548 53.04 61.1881 49.84C58.5215 46.64 57.1881 41.36 57.1881 34C57.1881 26.9067 58.5748 21.76 61.3481 18.56C64.1215 15.3067 68.5481 13.68 74.6281 13.68C80.2815 13.68 84.3348 14.96 86.7881 17.52C89.2415 20.0267 90.4681 24.24 90.4681 30.16C90.4681 31.2267 90.4415 32.2133 90.3881 33.12C90.3348 34.0267 90.2281 35.12 90.0681 36.4H63.8281C63.8815 40.7733 64.7615 43.8933 66.4681 45.76C68.2281 47.6267 71.2415 48.56 75.5081 48.56C77.8015 48.56 80.2015 48.3467 82.7081 47.92C85.2148 47.4933 87.2415 46.96 88.7881 46.32ZM84.4681 29.28C84.4148 25.76 83.6415 23.28 82.1481 21.84C80.6548 20.3467 78.1481 19.6 74.6281 19.6C70.6815 19.6 67.8815 20.4533 66.2281 22.16C64.6281 23.8133 63.8281 26.7467 63.8281 30.96H84.3881C84.3881 30.8533 84.3881 30.6133 84.3881 30.24C84.4415 29.8133 84.4681 29.4933 84.4681 29.28ZM125.112 0.799998H131.672V54H125.992L125.512 50.32H125.352C123.805 51.76 121.912 52.8533 119.672 53.6C117.485 54.2933 114.952 54.64 112.072 54.64C106.685 54.64 102.819 53.04 100.472 49.84C98.1785 46.64 97.0319 41.4133 97.0319 34.16C97.0319 26.9067 98.4452 21.68 101.272 18.48C104.099 15.28 108.819 13.68 115.432 13.68C117.299 13.68 119.032 13.84 120.632 14.16C122.285 14.4267 123.779 14.8267 125.112 15.36V0.799998ZM116.232 19.6C111.272 19.6 107.912 20.64 106.152 22.72C104.445 24.8 103.592 28.6133 103.592 34.16C103.592 39.5467 104.339 43.3067 105.832 45.44C107.379 47.52 110.232 48.56 114.392 48.56C116.365 48.56 118.259 48.32 120.072 47.84C121.885 47.3067 123.565 46.5333 125.112 45.52V21.2C123.832 20.6667 122.472 20.2667 121.032 20C119.592 19.7333 117.992 19.6 116.232 19.6ZM169.833 46.16V51.68C168.5 52.5333 166.5 53.2533 163.833 53.84C161.22 54.3733 158.473 54.64 155.593 54.64C149.993 54.64 146.046 53.12 143.753 50.08C141.513 47.04 140.393 41.7333 140.393 34.16C140.393 26.7467 141.86 21.4933 144.793 18.4C147.726 15.2533 152.713 13.68 159.753 13.68C161.3 13.68 162.686 13.7333 163.913 13.84C165.193 13.8933 166.82 14.0533 168.793 14.32V20.16C166.82 19.8933 165.193 19.7333 163.913 19.68C162.686 19.6267 161.3 19.6 159.753 19.6C154.74 19.6 151.353 20.64 149.593 22.72C147.833 24.7467 146.953 28.56 146.953 34.16C146.953 39.76 147.646 43.5733 149.033 45.6C150.42 47.5733 153.086 48.56 157.033 48.56C159.22 48.56 161.486 48.3467 163.833 47.92C166.18 47.44 168.18 46.8533 169.833 46.16ZM190.189 54.64C185.816 54.64 182.536 53.5467 180.349 51.36C178.163 49.1733 177.069 45.8933 177.069 41.52V14.48H183.629V40.72C183.629 43.44 184.323 45.4133 185.709 46.64C187.096 47.8667 189.283 48.48 192.269 48.48C194.083 48.48 195.896 48.2667 197.709 47.84C199.576 47.36 201.443 46.64 203.309 45.68V14.48H209.869V54H203.869L203.549 50.72H203.389C200.616 52.16 198.216 53.1733 196.189 53.76C194.163 54.3467 192.163 54.64 190.189 54.64ZM234.036 19.6C230.623 19.6 228.25 20 226.916 20.8C225.636 21.6 224.996 23.2267 224.996 25.68C224.996 26.96 225.29 27.9467 225.876 28.64C226.516 29.28 227.503 29.7067 228.836 29.92L238.996 31.44C242.196 31.92 244.436 32.9333 245.716 34.48C246.996 35.9733 247.636 38.3467 247.636 41.6C247.636 46.1867 246.543 49.52 244.356 51.6C242.17 53.6267 238.543 54.64 233.476 54.64C230.436 54.64 227.61 54.48 224.996 54.16C222.383 53.84 220.223 53.4133 218.516 52.88V46.72C220.223 47.2533 222.303 47.7067 224.756 48.08C227.263 48.4 229.823 48.56 232.436 48.56C235.743 48.56 238.01 48.08 239.236 47.12C240.463 46.16 241.076 44.4533 241.076 42C241.076 40.4533 240.73 39.3333 240.036 38.64C239.343 37.8933 238.09 37.3867 236.276 37.12L226.116 35.6C223.556 35.2267 221.636 34.24 220.356 32.64C219.13 31.04 218.49 28.72 218.436 25.68C218.436 21.52 219.663 18.48 222.116 16.56C224.623 14.64 228.463 13.68 233.636 13.68C235.77 13.68 237.69 13.7333 239.396 13.84C241.156 13.9467 242.996 14.16 244.916 14.48V20.32C243.53 20.1067 241.903 19.9467 240.036 19.84C238.17 19.68 236.17 19.6 234.036 19.6ZM269.193 19.6C265.779 19.6 263.406 20 262.072 20.8C260.793 21.6 260.153 23.2267 260.153 25.68C260.153 26.96 260.446 27.9467 261.033 28.64C261.673 29.28 262.659 29.7067 263.993 29.92L274.153 31.44C277.353 31.92 279.593 32.9333 280.873 34.48C282.153 35.9733 282.793 38.3467 282.793 41.6C282.793 46.1867 281.699 49.52 279.513 51.6C277.326 53.6267 273.699 54.64 268.633 54.64C265.593 54.64 262.766 54.48 260.153 54.16C257.539 53.84 255.379 53.4133 253.673 52.88V46.72C255.379 47.2533 257.459 47.7067 259.913 48.08C262.419 48.4 264.979 48.56 267.593 48.56C270.899 48.56 273.166 48.08 274.393 47.12C275.619 46.16 276.233 44.4533 276.233 42C276.233 40.4533 275.886 39.3333 275.193 38.64C274.499 37.8933 273.246 37.3867 271.432 37.12L261.273 35.6C258.713 35.2267 256.793 34.24 255.513 32.64C254.286 31.04 253.646 28.72 253.593 25.68C253.593 21.52 254.819 18.48 257.273 16.56C259.779 14.64 263.619 13.68 268.793 13.68C270.926 13.68 272.846 13.7333 274.553 13.84C276.313 13.9467 278.153 14.16 280.073 14.48V20.32C278.686 20.1067 277.059 19.9467 275.193 19.84C273.326 19.68 271.326 19.6 269.193 19.6ZM297.549 7.6H290.509V0.799998H297.549V7.6ZM297.309 54H290.749V14.48H297.309V54ZM342.578 34.16C342.578 41.6267 341.191 46.9067 338.418 50C335.698 53.0933 331.005 54.64 324.338 54.64C317.458 54.64 312.685 53.1467 310.018 50.16C307.351 47.1733 306.018 41.84 306.018 34.16C306.018 26.64 307.378 21.36 310.098 18.32C312.871 15.2267 317.618 13.68 324.338 13.68C331.218 13.68 335.965 15.1733 338.578 18.16C341.245 21.1467 342.578 26.48 342.578 34.16ZM312.578 34.08C312.578 39.9467 313.351 43.84 314.898 45.76C316.445 47.6267 319.591 48.56 324.338 48.56C328.925 48.56 332.018 47.5733 333.618 45.6C335.218 43.5733 336.018 39.7333 336.018 34.08C336.018 28.2133 335.245 24.3467 333.698 22.48C332.205 20.56 329.085 19.6 324.338 19.6C319.698 19.6 316.578 20.5867 314.978 22.56C313.378 24.5333 312.578 28.3733 312.578 34.08ZM357.856 54H351.296V14.48H356.976L357.296 18.32H357.536C359.669 16.72 361.882 15.5467 364.176 14.8C366.522 14.0533 369.136 13.68 372.016 13.68C376.389 13.68 379.696 14.7733 381.936 16.96C384.229 19.1467 385.376 22.3733 385.376 26.64V54H378.816V27.44C378.816 24.7733 378.069 22.8 376.576 21.52C375.082 20.24 372.789 19.6 369.696 19.6C367.776 19.6 365.802 19.92 363.776 20.56C361.802 21.1467 359.829 22.0267 357.856 23.2V54Z" fill="black"/>
</svg>
